<svg xmlns="http://www.w3.org/2000/svg" version="1.1" width="600px" height="600px" viewBox="0 0 200 200" style="overflow:hidden!important;"><defs id="SvgjsDefs23219"><linearGradient id="SvgjsLinearGradient24270" x1="78.75" y1="71.43" x2="78.75" y2="103.45" gradientUnits="userSpaceOnUse" class="svga-on-canvas-glasses-gradient-single-0-null"><stop id="SvgjsStop24271" stop-opacity="1" stop-color="#211810" offset="0" ></stop><stop id="SvgjsStop24272" stop-opacity="0.5248" stop-color="#231910" offset="0.4752" ></stop><stop id="SvgjsStop24273" stop-opacity="0.3536" stop-color="#2a1d12" offset="0.6464" ></stop><stop id="SvgjsStop24274" stop-opacity="0.2315" stop-color="#352315" offset="0.7685" ></stop><stop id="SvgjsStop24275" stop-opacity="0.1329" stop-color="#462d18" offset="0.8671" ></stop><stop id="SvgjsStop24276" stop-opacity="4.940000e-02" stop-color="#5c391d" offset="0.9506" ></stop><stop id="SvgjsStop24277" stop-opacity="0" stop-color="#6d4221" offset="1" ></stop></linearGradient><linearGradient id="SvgjsLinearGradient24279" x1="121.01" y1="71.43" x2="121.01" y2="103.45" gradientUnits="userSpaceOnUse" class="svga-on-canvas-glasses-gradient-single-1-null"><stop id="SvgjsStop24280" stop-opacity="1" stop-color="#211810" offset="0" ></stop><stop id="SvgjsStop24281" stop-opacity="0.5248" stop-color="#231910" offset="0.4752" ></stop><stop id="SvgjsStop24282" stop-opacity="0.3536" stop-color="#2a1d12" offset="0.6464" ></stop><stop id="SvgjsStop24283" stop-opacity="0.2315" stop-color="#352315" offset="0.7685" ></stop><stop id="SvgjsStop24284" stop-opacity="0.1329" stop-color="#462d18" offset="0.8671" ></stop><stop id="SvgjsStop24285" stop-opacity="4.940000e-02" stop-color="#5c391d" offset="0.9506" ></stop><stop id="SvgjsStop24286" stop-opacity="0" stop-color="#6d4221" offset="1" ></stop></linearGradient></defs><g id="svga-group-wrapper"><g id="svga-group-backs-single"></g><g id="svga-group-humanwrap-move" transform="matrix(1,0,0,1,0,6)"><g id="svga-group-humanwrap" transform="matrix(1.0500002000000002,0,0,1.0500002000000002,-4.985020407302301,-5.883047461691689)"><g id="svga-group-hair-back-move" transform="matrix(1,-2.856368900253737e-18,2.856368900253737e-18,1,0,0)"><g id="svga-group-hair-back" transform="matrix(1,0,0,1,0,0)"></g></g><g id="svga-group-humanbody-back"><path id="SvgjsPath24168" d="M180.8 184.9c-2.3-3.4-38.9-17.8-38.9-17.8l-13.4-5.2-5.6-68.8H76.8L71.3 162l-13.4 5.2S21.4 181.6 19 185c-2.3 3.4-3.3 14.9-3.3 14.9V219h168.5v-19.2c-.1.1-1-11.5-3.4-14.9z" fill="#f0c7b1" stroke-width="none" opacity="1"></path></g><g id="svga-group-chinshadow-single"><path id="SvgjsPath24164" d="M73.4 148.4c11.3 14.1 20.9 13.8 20.9 13.8s9.6.3 20.9-13.9c4.4-5.5 8-11.5 10.8-17.1l-3.1-38.1H76.8l-4.3 54.2c.3.3.6.7.9 1.1z" fill="#d19271" stroke-width="none" opacity="1"></path></g><g id="svga-group-humanbody-front"><path id="SvgjsPath24169" d="M184.5 219c-.1-6.4-.1-12.8-.1-19.2l-.3-.1s.1-.1.2 0c.1 0 .1.1.1.1v-.4l-.1-.5-.1-.9-.2-1.9c-.2-1.3-.4-2.5-.6-3.8-.2-1.3-.5-2.5-.9-3.8-.4-1.2-.8-2.5-1.5-3.6-.8-.9-1.9-1.5-2.9-2.1-1-.6-2.1-1.1-3.2-1.7-2.1-1.1-4.3-2.1-6.5-3.1-4.4-2-8.7-3.9-13.1-5.7-4.4-1.9-8.8-3.7-13.2-5.5l-13-5.2-1.2-16.9c-.4-5.7-.9-11.5-1.3-17.2l-1.3-17.2-1.5-17.3-.1-.8h-.8c-7.7 0-15.4.1-23.1.1l-23.1.2h-.5v.5L75 110.2l-1.3 17.2c-.8 11.4-1.8 22.8-2.8 34.2-5.6 2.1-11.2 4.2-16.7 6.4-5.6 2.2-11.2 4.5-16.8 6.9-2.8 1.2-5.6 2.4-8.3 3.6-2.8 1.3-5.5 2.5-8.2 4.1-.7.4-1.3.8-2 1.4-.2.1-.4.4-.5.6l-.3.6c-.2.4-.4.7-.5 1.1-.6 1.5-1 3-1.3 4.5-.6 3-1.1 6-1.4 9.1l-.1 19.1v.9h.9l42.1.1H100c14 0 28.1-.1 42.1-.2l42.1-.5h.3v-.3zm-84.5-1-42.1-.1-41.2.1-.1-18.1c.3-3 .6-5.9 1.2-8.9.3-1.4.6-2.9 1.1-4.2.1-.3.3-.7.4-.9l.2-.4.3-.3c.5-.4 1.1-.8 1.8-1.2 2.5-1.5 5.3-2.8 8-4.1 2.7-1.3 5.5-2.5 8.2-3.7 5.5-2.4 11.1-4.8 16.7-7.1s11.2-4.5 16.9-6.7l.2-.1v-.2c.9-11.5 1.7-23 2.7-34.4l1.4-17.2 1.5-16.7 22.6.2c7.4.1 14.8.1 22.3.1l1.3 16.4 1.5 17.2c.5 5.7 1 11.5 1.5 17.2l1.6 17.2v.3l.3.1 13.4 5c4.4 1.7 8.9 3.4 13.3 5.2 4.4 1.8 8.8 3.7 13.2 5.6 2.2 1 4.3 2 6.5 3 1.1.5 2.1 1.1 3.2 1.6 1 .6 2.1 1.2 2.9 2 .7 1.1 1.1 2.3 1.4 3.5.3 1.2.6 2.5.8 3.7.2 1.3.4 2.5.6 3.8l.2 1.9.1.9.1.5v.4c0 6.3 0 12.6-.1 18.9l-41.8-.5c-14 .1-28.1 0-42.1 0z" fill="#c27b55" stroke-width="none" opacity="1"></path><path id="SvgjsPath24170" d="M125.1 142.4s-1.8 23-9.1 32.9c0 0 7.9-25 9.1-32.9zm-34.5 16s5 7.9 11.5 10.1c0 0-9.5 2.2-11.5-10.1zM73.4 140c6.7 25.6 6.7 25.6 8.5 30.7 0 0 .4-12.6-8.5-30.7z" fill="#d19271" stroke-width="none" opacity="1"></path></g><g id="svga-group-clothes-single"><path id="SvgjsPath24049" d="M10.9 220c0-15.2 1.2-32.2 2.3-34.1 1-1.9 5-3.3 5-3.3s3.5-2.9 7.1-4.8c3.5-1.9 15.7-3.9 15.7-3.9s0-1 .4-1.9 1.9-1.2 5-5.2 2.1-4.8 2.7-6.7c.6-1.9 4.4-1.5 4.4-1.5s.4-6 4.8-10c4.4-3.9 13.6-6.6 13.6-6.6s-.1 6.9-.1 11.3-1.3 4.6 5.1 12.6c6.5 7.9 12.4 15.1 15.4 17 3.1 1.9 7.2 4 9.1 9.5 0 0 1.7-4.4 3.7-5.9s6.2-6 7.9-7.7c1.7-1.7 5.3-8.1 7.5-9.5 2.2-1.5 7.4-6.5 8.3-7.9s-.9-21.7-.9-21.7 6.9 3.7 9.4 5.4c2.5 1.7 4.9 9.5 4.9 9.5s2.4 2.1 5.1 4.1 4.7 2.9 6.2 5.7c1.5 2.8.8 5.3 1.4 6.5.6 1.1 1.2 2 1.6 2.6 0 0 17.1 5.1 20 6.4s5.7 4 5.7 4 3.1 1.9 3.9 9.8 1.8 26.4 1.8 26.4l-177-.1z" fill="#000000" stroke-width="none" opacity="1"></path><path id="SvgjsPath24050" d="m188.6 219.9-1.2-18.6c-.2-3.1-.4-6.2-.9-9.3-.2-1.6-.6-3.2-1.2-4.7-.3-.8-.7-1.5-1.1-2.2-.2-.4-.5-.7-.8-1-.3-.3-.5-.6-.9-.9-1.5-1.4-3.1-2.6-4.9-3.6-.9-.5-1.9-.9-2.8-1.2l-2.8-1.1-15.3-4.3c-.5-.8-1.1-1.6-1.4-2.4-.1-.3-.2-.8-.2-1.3s-.1-1-.1-1.6c-.2-2.2-1.2-4.3-2.7-5.9-1.6-1.6-3.4-2.6-5.1-3.8-1.6-1.1-3.2-2.4-4.7-3.7-.6-1.7-1.2-3.3-1.9-4.9-.4-.8-.8-1.6-1.3-2.4-.5-.8-1-1.6-1.9-2.2-1.5-1-3.1-1.9-4.7-2.8-1.6-.9-3.2-1.7-4.8-2.6l-.7-.4s.7 11.7 1 17.3c0 1.4.4 3 .3 4.3 0 .2 0 .3-.1.5 0 .1 0 .1-.1.2l-.1.2c-.2.3-.4.5-.6.8-.4.5-.9 1-1.4 1.5-2 2-4 3.9-6.2 5.6-1.1.9-2 2.1-2.8 3.2-.8 1.1-1.6 2.3-2.4 3.4-.4.6-.8 1.1-1.2 1.7-.4.6-.8 1.1-1.4 1.5-1.1.8-3.5 4.2-6.3 6.5-.6.4-1.2.7-1.8 1.3-.5.5-.9 1.1-1.3 1.7-.6.9-1.1 1.8-1.5 2.8-.9-2.2-2.5-4.3-4.4-5.8-1.1-.9-2.2-1.6-3.4-2.4-1.2-.7-2.1-1.7-3.2-2.5-4.4-4-4.4-6-8.3-9.7-1.9-1.9-3.6-4.1-5.2-6.2-.8-1.1-1.7-2.1-2.4-3.2-.8-1.1-1.4-2.2-1.8-3.4-.4-1.1-.2-2.4-.1-3.8l.1-4.1.1-8.1v-1.2l-1.2.3c-2.2.6-4.3 1.4-6.3 2.3-2.1.9-4.1 1.9-6 3.2-1.9 1.3-3.6 3.1-4.6 5.2-1 1.8-1.6 3.8-1.9 5.8-.7 0-1.4.1-2.2.2-.5.1-1 .3-1.5.7-.2.2-.5.5-.6.8-.2.3-.2.6-.3.8-.1.5-.2 1-.2 1.4 0 .4-.1.8-.2 1.1-.2.7-.7 1.5-1.1 2.2-1 1.4-2.1 2.8-3.3 4-.6.6-1.2 1.1-2 1.8-.2.2-.4.4-.6.7-.2.3-.2.5-.3.8-.1.3-.2.6-.2 1-1.5.4-7.5.9-9 1.4-1.6.6-3.2 1.1-4.8 1.8-1.6.7-3.1 1.6-4.5 2.6-1.4.9-2.7 1.9-4 3-1.6.7-3.1 1.4-4.4 2.6-.3.3-.6.7-.9 1.2-.2.5-.2.9-.3 1.3-.2.9-.3 1.7-.4 2.5-.4 3.4-.6 6.7-.8 10.1-.2 3.4-.3 6.7-.3 10.1 0 1.7-.1 3.4-.1 5 0 1.7 0 3.3.1 5.1l43.9.4 44.2.3c14.7.1 29.5.1 44.3.2 14.8 0 29.6.1 44.4 0h1.1l-.1-1.1zm-85-30.9c.4-.6.8-1.1 1.2-1.6.4-.5 1-.8 1.6-1.2 2.4-1.4 3.4-4.9 12.8-9.5 3.2-1.6 6-3.6 8.7-5.7 1.4-1.1 2.7-2.2 4-3.3.6-.6 1.3-1.2 1.8-2s.9-1.6 1.3-2.4c.7-1.7 1.1-3.4 1.2-5.2 0-.4 0-.9-.1-1.4-.1-.4-.2-.9-.4-1.3-.3-.8-.7-1.6-1.2-2.3.3.8.5 1.6.7 2.5.1.8.2 1.6 0 2.4-.3 1.6-.9 3.2-1.7 4.6-.4.7-.8 1.4-1.3 2-.5.6-1.1 1.1-1.7 1.7-1.3 1.1-2.6 2.1-3.9 3.2-1.3 1.1-2.7 2.1-4.1 3.1l-2.1 1.5c-.7.5-1.4.9-2.1 1.4-1.5.9-2.9 1.9-4.4 2.9.1-.1.1-.2.2-.2.4-.6.8-1.1 1.2-1.7.8-1.1 1.6-2.3 2.4-3.4.8-1.1 1.7-2.3 2.7-3.1 2.3-1.6 4.3-3.6 6.3-5.6l1.5-1.5c.2-.3.5-.5.7-.8 0 0 2-2.5 2.4-3.6.5-1.3.8-2.7.7-4.2-.2-1.4-.9-5.1-1.6-6.4-.5-1.1-2-4.9-2.2-7.2 1.4.8 2.7 1.5 4.1 2.3 1.6.9 3.1 1.8 4.6 2.8.6.4 1.1 1.2 1.6 1.9.4.8.8 1.5 1.2 2.4.7 1.6 1.3 3.3 1.9 5l.1.1.1.1c.1 0 .1.1.1.1v.1c0 1.1-.1 2.3-.3 3.4-.3 2.2-1 4.4-1.8 6.5-1.5 4.2-3.9 8.1-7.5 10.4-.9.6-1.8 1.1-2.9 1.7l-3 1.8-5.8 3.6c-1 .6-1.9 1.1-2.9 1.6-.5.2-1 .5-1.5.6-.5.2-1.1.3-1.6.4-2.2.6-4.4 1.2-6.6 1.9 2.3-.3 4.6-.6 6.8-.9.6-.1 1.1-.1 1.7-.3.6-.1 1.2-.3 1.7-.6 1.1-.4 2.1-1 3.2-1.5 2.1-1.1 4-2.3 6-3.4 1-.6 2-1.1 3-1.7 1-.5 2.1-1.1 3-1.8 2-1.4 3.7-3.1 5-5.1 1.3-2 2.2-4.2 2.9-6.5.7-2.2 1.1-4.5 1.2-6.9 0-1 0-2.1-.1-3.1 1.3 1.2 2.7 2.3 4.1 3.3 1.7 1.2 3.5 2.2 4.8 3.6 1.3 1.4 2.1 3.2 2.3 5.2.1.5.1 1 .1 1.5s0 1 .3 1.7c-.8.9-1.6 1.9-2.3 2.8-.9 1.2-1.9 2.3-2.8 3.4-1.9 2.1-4.2 4.2-6.1 6.6 1.5-.6 2.8-1.4 4.1-2.2 1.3-.9 2.5-1.9 3.5-3 1.1-1.2 1.9-2.5 2.6-3.9.5-1 1-2 1.3-3.1.4.8.9 1.6 1.4 2.2l.1.2h.1c-1.5 2.2-3 4.4-4.7 6.6-1.8 2.3-3.7 4.6-5.9 6.4-2.3 1.8-4.8 3.2-7.5 4.3-2.7 1.1-5.4 2.1-8.2 2.9-2.8.8-5.7 1.3-8.6 1.8-2.9.5-5.7 1.2-8.6 1.6-3.4.6-4.8.5-5.1.5 0-1.1-.1-2.1-.3-2.8.6-.3 1.4-.9.1-1.4-1.6-.5-3.1.2-3.1.9-.1.6.5.7 1.1.7.2.6.2 1.3.2 2.1-.3-.1-.6-.3-.8-.5-.5-.4-.9-.8-1.3-1.3-.3-.5-.7-1.1-.8-1.6l-.6-2.1c.6-.9 1.1-2 1.8-3zm-61.9-14.6v-.6c0-.3.1-.8.2-1.1 0-.2.1-.4.2-.4 0-.1.1-.2.3-.3.6-.5 1.4-1.1 2-1.8 1.3-1.3 2.5-2.7 3.5-4.2.5-.8 1-1.6 1.3-2.6.3-1 .3-2 .5-2.7 0-1.1 1.6-1.3 3.1-1.3 0 .6.1 1.1.1 1.7.4 3.3 1.5 6.6 3.1 9.6 1.7 2.9 3.9 5.6 6.5 7.6 2.6 2.1 5.6 3.7 8.7 4.7-2.8-1.8-5.4-3.7-7.7-5.9s-4.3-4.7-5.8-7.4c-.8-1.4-1.4-2.8-2-4.3-.6-1.5-1-3-1.3-4.5-.1-.5-.2-1.1-.3-1.6l.1-.6c.2-2 .9-4.1 1.9-5.9 1-1.9 2.4-3.4 4.1-4.6 1.7-1.2 3.7-2.1 5.7-3 1.6-.7 3.3-1.3 5-1.9 0 0-1.7 4.2-2.2 5.1-.7 1.1-1 2.6-.7 3.9.1.7.3 1.3.6 1.8.2.6.5 1.1.8 1.6.4.7 3 5.6 3.8 6.8.8 1.1 1.7 2.2 2.5 3.3 1.7 2.1 3.6 4.9 5.6 6.8 4.1 4 3.8 6.3 8.3 9.4 1.1.8 2.3 1.5 3.5 2.2 1.2.7 2.3 1.4 3.3 2.2 2.1 1.6 3.7 3.8 4.6 6.3l.1.3-.4 1.1c-.2.6-.5 1.3-.9 1.8-.4.6-.8 1-1.2 1.1-.1 0-.2.1-.4.1h-1.3c0-.1.1-.2.1-.3.3-.6.6-1.2.8-1.5.4.1.9 0 1-.3.2-.5-.6-2.1-1.6-2-.9 0-1.3.3-.5 1.4-.6.6-1.3 1.5-1.8 2.8h-.6c-3.1-.1-6.1-.4-9.2-.7-3.1-.4-6.1-.7-9-1.5-2.9-.8-15.6-7.5-21.2-10-2.8-1.2-5.7-2.4-8.3-4.1-1.3-.9-2.5-1.8-3.5-3-.8-.9-1.6-2.1-1.9-3.3l.5-.2zm102 44.6c-14.7 0-29.3.1-44 .2l-44.2.3-44.5.4c.1-1.6.1-3.3.2-5l.2-5c.1-3.4.3-6.7.6-10.1.2-3.3.6-6.7 1-10 .1-.8.2-1.6.4-2.4.1-.4.2-.8.3-1.1.1-.3.4-.6.6-.8 1.1-1 2.7-1.8 4.2-2.4h.1l.1-.1c1.3-1 2.7-2 4.1-2.9 1.4-.9 2.8-1.8 4.3-2.4 3-1.3 10.9-2.2 14.1-3.1.3 1.3 1 2.4 1.8 3.5 1 1.2 2.2 2.3 3.4 3.2 2.5 1.9 5.4 3.2 8.2 4.5 5.6 2.7 18.2 9.9 21.2 10.8 1.5.4 3.1.8 4.6 1s3.1.5 4.6.7c3.1.4 6.2.6 9.3.8h.2v.1c-.3 2.9 1.6 8.7 2 12.1s-1 6.8-.3 7 2.5.9 2.8-.2c.3-1.1.6-10.9-.9-13.9-.9-1.8-1.3-3.6-1.3-5.1H98.5c.2 0 .5-.1.8-.1 1.1-.3 1.8-1.2 2.3-1.9.1-.1.1-.2.2-.3 0 .1.1.1.1.2.5.7 1.1 1.3 1.8 1.8.6.4 1.2.7 1.8.9-.1.5-.1.9-.2 1.3-.4 1.9-2 3.1-1.2 7.2s3.1 6.1 3.4 7.7c.3 1.6.4 2.9 1 2.9s2.4-.7 2.7-1.6-.8-3.5-2.3-5.4c-1.5-1.9-2.8-4.6-2.8-6.1 0-1.3.9-3.7 1.3-5.7 6.7-.6 11.3-1.8 14.2-2.3s5.8-1.2 8.6-2c2.9-.9 5.6-1.9 8.3-3.2 2.7-1.3 5.3-2.8 7.6-4.8 2.2-2 4.1-4.4 5.8-6.8 1.6-2.2 3-4.5 4.3-6.9h.1l15.4 4.5 2.7 1.1c.9.4 1.8.8 2.6 1.2 1.6.9 3.2 2.1 4.6 3.4l.1.1.6.6.6.9c.4.6.7 1.3.9 1.9.5 1.4.9 2.8 1.1 4.3.4 3 .6 6.1.8 9.2.4 5.8.7 11.7 1.1 17.5-14.5.2-28.8.2-43.1.3zM32.8 203.3c-.3-1.8-1-3.3-1.7-4.7-1.5-2.9-3.2-5.6-5.1-8.2-1-1.3-1.9-2.6-3.1-3.7-1.2-1.1-2.5-2.1-4.1-2.6 1.4.8 2.5 2 3.4 3.2.9 1.2 1.7 2.6 2.6 3.9 1.6 2.7 3.2 5.4 4.6 8.2.7 1.4 1.4 2.8 1.6 4.1.3 1.5.4 3.1.6 4.6.3 3.1.6 6.3 1.1 9.5.4-3.2.5-6.4.4-9.6 0-1.4-.1-3-.3-4.7zm142.4-17.5c-.9.2-1.8.7-2.4 1.4-.6.7-1.1 1.5-1.5 2.2-1.8 2.8-3.6 5.7-5.2 8.7-.4.8-.7 1.6-1.1 2.4-.2.4-.3.8-.4 1.3-.1.4-.2.9-.3 1.3-.2 1.7-.4 3.4-.4 5.1-.1 3.4-.1 6.8.1 10.1.6-3.3 1-6.7 1.5-10 .2-1.6.4-3.3.7-4.9.3-1.5 1-3 1.7-4.4 1.5-3 3.2-5.8 4.7-8.9.4-.8.7-1.5 1.1-2.1.4-.6 1-1 1.7-1.3.7-.3 1.6-.4 2.4-.8.8-.3 1.6-.8 2.2-1.3-.8.4-1.6.6-2.4.8-.7.2-1.5.2-2.4.4z" fill="#000000" stroke-width="none" opacity="1"></path><path id="SvgjsPath24051" d="M173.1 180.5c-3.5-1.5-13.8-3-16.4-4.8 0 0 11.8 6.1 15.9 7.4 4.1 1.3 7.2.9 7.2.9s-3.2-2-6.7-3.5zm-32.6-24.6c0-3.2-2.4-7.4-4.1-9.5s-5.4-3.2-6.9-4.3c0 0 .9.9 2.6 2.8 1.7 1.9 5 6.7 5.6 10.6.6 3.9-2.6 11.3-4.8 14.1s-10.8 7.2-14.8 9.5c-3.9 2.4-7.5 5.6-12.1 8.2s-3 6.9-3 6.9.7-2.6 2.2-4.6 7.3-6.1 11.6-7.4c4.3-1.3 14.3-7.4 18.2-11.1 3.9-3.4 5.5-11.9 5.5-15.2zm3.2 2.2s1.9 3 3.2 4.8c1.3 1.7 2.4 5.9-1.5 12.4s-15 13.2-15 13.2 9.5-4.3 12.6-6.5c3-2.2 8.9-9.5 9.3-11.3.4-1.7-.2-4.8-1.5-6.9-1.2-2.2-6.2-4.8-7.1-5.7zm-59.3 22.6c-3.9-3-11.4-13.2-14.4-17.1-3-3.9-3.2-8-3.5-10.8 0 0-2.4 2.6-2.8 4.8s-.4 5.9 3.2 8.9c3.7 3 17.5 18 22.7 20.4 5.2 2.4 9.3 5.9 9.3 5.9s-1.1-2.6-2.4-3.9c-1.3-1.5-8.2-5.2-12.1-8.2zM60 185.4c3.9 1.5 14.5 6.3 17.3 7.4s15.1 3 15.1 3-11.8-3.9-15.8-5.6c-3.8-1.7-16.6-4.8-16.6-4.8z" fill="#0f0f0f" stroke-width="none" opacity="1"></path></g><g id="svga-group-head" transform="matrix(1,-2.856368900253737e-18,2.856368900253737e-18,1,0,0)"><g id="svga-group-ears-left-move" transform="matrix(1,0,0,1,0,0)"><g id="svga-group-ears-left" transform="matrix(1,0,0,1,0,0)"><path id="SvgjsPath24064" d="M68.53 80.36s-11.15-9.8-12.94-9.96c-1.54-.14-5.36 8.01-7.05 13.16-.45 1.36-.34 2.88.25 4.2 1.62 3.57 5.21 11.04 8.43 14.78 0 0 2.72.59 3.58.33.86-.25 7.58-5.67 8.27-7.77s.83-11.3-.54-14.74z" fill="#f0c7b1" stroke-width="none" opacity="1"></path><path id="SvgjsPath24065" d="M69.49 84.19c.18 1.31.28 2.64.33 3.96.05 1.32.06 2.65-.01 3.98a26.7 26.7 0 0 1-.17 1.99c-.05.34-.1.67-.2 1.02s-.28.7-.46.96c-.72 1.11-1.6 1.95-2.47 2.8-.88.84-1.78 1.63-2.71 2.4-.47.38-.93.75-1.42 1.11-.24.18-.49.35-.74.52l-.4.24c-.16.08-.35.17-.53.19-.67.08-1.23-.01-1.82-.09-.58-.08-1.15-.19-1.73-.32l-.13-.03-.08-.1c-1.45-1.74-2.63-3.68-3.74-5.65-1.1-1.98-2.1-4.03-3.06-6.1l-1.41-3.11c-.5-1.05-.71-2.29-.54-3.46.06-.59.26-1.14.44-1.67.18-.54.37-1.07.56-1.6.4-1.05.79-2.11 1.22-3.15.86-2.07 1.76-4.13 2.94-6.02.3-.47.62-.93 1-1.36.19-.21.4-.42.67-.59.13-.08.3-.16.52-.16.19.01.32.07.47.12 1.06.47 1.87 1.14 2.75 1.76 1.72 1.29 3.37 2.66 5 4.09 1.64 1.41 3.22 2.86 4.81 4.38.49 1.27.72 2.58.91 3.89zM58.4 72.51c-.85-.59-1.75-1.26-2.59-1.61-.09-.02-.2-.08-.26-.08-.04 0-.12.02-.2.07-.17.1-.35.25-.51.44-.34.36-.65.8-.94 1.24-1.16 1.8-2.18 3.77-3.11 5.77-.46 1.01-.92 2.02-1.32 3.06-.2.52-.4 1.04-.59 1.57-.19.53-.38 1.05-.45 1.6-.15 1.11.06 2.27.55 3.26.47 1.03.98 2.05 1.49 3.05 1.02 2.02 2.12 3.99 3.26 5.91 1.15 1.91 2.36 3.79 3.76 5.42l-.21-.13c1.09.2 2.3.43 3.29.33.11-.01.18-.06.28-.11l.35-.22.7-.5c.47-.34.93-.71 1.39-1.08.92-.74 1.81-1.52 2.68-2.34.85-.82 1.73-1.66 2.39-2.61.17-.25.29-.46.38-.72.08-.27.14-.58.19-.89.09-.63.17-1.27.21-1.91.1-1.29.14-2.6.15-3.9.01-1.31-.04-2.62-.15-3.92-.11-1.3-.27-2.62-.66-3.84-3.33-2.62-6.67-5.35-10.08-7.86z" fill="#e1ac8f" stroke-width="none" opacity="1"></path><path id="SvgjsPath24066" d="M68.79 88.66S58.04 75.08 56.02 76.21c-2.01 1.12-5.19 7.53-5.18 9.67.02 3.14 3.34 8.38 5.01 9.96s3.68 2.55 6.35 1.94c2.66-.61 6.59-9.12 6.59-9.12z" fill="#e1ac8f" stroke-width="none" opacity="1"></path><path id="SvgjsPath24067" d="M60.61 88.64c-.45-1.26-.95-2.5-1.45-3.74a49.61 49.61 0 0 0-1.66-3.64c-.61-1.18-1.22-2.36-1.97-3.45l-.08-.12-.08.12c-.75 1.18-1.45 2.38-2.12 3.62-.33.62-.66 1.25-.96 1.89-.31.64-.57 1.31-.84 1.98l-.04.1.04.12c.46 1.41.96 2.79 1.47 4.18.25.69.54 1.37.83 2.05.3.68.59 1.35.99 2.01l.19.31.25-.23c.34-.31.6-.65.87-1.02.26-.37.49-.76.69-1.17.4-.82.63-1.78.6-2.74v-.06l-.02-.04c-.5-.99-1.03-1.96-1.55-2.94l-.05.03c.42 1.01.83 2.03 1.26 3.03-.04.86-.3 1.68-.68 2.41-.33.62-.77 1.17-1.24 1.65-.26-.49-.5-1.02-.73-1.56l-.81-2.03c-.53-1.32-1.03-2.66-1.52-3.99.45-1.3.94-2.59 1.52-3.82.57-1.23 1.22-2.41 1.96-3.51.67 1.04 1.17 2.23 1.68 3.39l1.54 3.67 1.56 3.67c.52 1.22 1.05 2.45 1.6 3.66l.06-.03c-.41-1.27-.85-2.54-1.31-3.8z" fill="#c27b55" stroke-width="none" opacity="1"></path></g></g><g id="svga-group-ears-right-move" transform="matrix(1,0,0,1,0,0)"><g id="svga-group-ears-right" transform="matrix(1,0,0,1,0,0)"><path id="SvgjsPath24068" d="M131.47 80.36s11.15-9.8 12.94-9.96c1.54-.14 5.36 8.01 7.05 13.16.45 1.36.34 2.88-.25 4.2-1.62 3.57-5.21 11.04-8.43 14.78 0 0-2.72.59-3.58.33-.86-.25-7.58-5.67-8.27-7.77s-.83-11.3.54-14.74z" fill="#f0c7b1" stroke-width="none" opacity="1"></path><path id="SvgjsPath24069" d="M131.44 80.33c1.58-1.52 3.17-2.97 4.81-4.38 1.62-1.42 3.28-2.8 5-4.09.88-.63 1.69-1.29 2.75-1.76.16-.04.28-.11.47-.12.21 0 .38.08.52.16.28.17.49.37.67.59.38.43.7.89 1 1.36 1.18 1.89 2.07 3.96 2.94 6.02.43 1.04.82 2.09 1.22 3.15.19.53.38 1.06.56 1.6.18.53.37 1.08.44 1.67.17 1.17-.04 2.41-.54 3.46l-1.41 3.11c-.97 2.06-1.96 4.11-3.06 6.1-1.11 1.98-2.29 3.92-3.74 5.65l-.08.1-.13.03c-.58.13-1.15.23-1.73.32-.59.07-1.16.16-1.82.09-.18-.02-.37-.11-.53-.19l-.4-.24c-.25-.17-.5-.34-.74-.52-.48-.36-.95-.73-1.42-1.11-.93-.76-1.83-1.56-2.71-2.4-.87-.86-1.75-1.69-2.47-2.8a3.42 3.42 0 0 1-.46-.96c-.1-.35-.14-.69-.2-1.02-.08-.67-.14-1.33-.17-1.99-.07-1.33-.07-2.65-.01-3.98.06-1.32.15-2.65.33-3.96.17-1.34.4-2.65.91-3.89zm.06.06c-.4 1.21-.56 2.54-.66 3.84-.1 1.3-.15 2.61-.15 3.92.01 1.31.06 2.61.15 3.9.05.65.12 1.29.21 1.91.06.31.11.62.19.89.09.26.2.47.38.72.66.94 1.54 1.79 2.39 2.61.86.81 1.76 1.59 2.68 2.34.46.37.92.73 1.39 1.08l.7.5.35.22c.1.05.17.1.28.11.99.1 2.2-.13 3.29-.33l-.21.13c1.4-1.63 2.61-3.51 3.76-5.42 1.14-1.92 2.24-3.89 3.26-5.91.51-1.01 1.02-2.02 1.49-3.05.49-.99.7-2.15.55-3.26-.07-.56-.26-1.07-.45-1.6s-.38-1.05-.59-1.57c-.4-1.04-.86-2.06-1.32-3.06-.93-2.01-1.95-3.97-3.11-5.77-.29-.44-.6-.88-.94-1.24-.17-.18-.35-.34-.51-.44a.431.431 0 0 0-.2-.07c-.06 0-.17.06-.26.08-.84.35-1.74 1.02-2.59 1.61-3.39 2.49-6.73 5.22-10.08 7.86z" fill="#e1ac8f" stroke-width="none" opacity="1"></path><path id="SvgjsPath24070" d="M131.21 88.66s10.75-13.58 12.77-12.45c2.01 1.12 5.19 7.53 5.18 9.67-.02 3.14-3.34 8.38-5.01 9.96s-3.68 2.55-6.35 1.94c-2.66-.61-6.59-9.12-6.59-9.12z" fill="#e1ac8f" stroke-width="none" opacity="1"></path><path id="SvgjsPath24071" d="M148.54 85.31c-.26-.67-.52-1.34-.84-1.98-.3-.64-.62-1.27-.96-1.89-.67-1.24-1.38-2.44-2.12-3.62l-.08-.12-.08.12c-.74 1.1-1.36 2.27-1.97 3.45-.6 1.18-1.14 2.4-1.66 3.64-.49 1.24-1 2.48-1.45 3.74-.46 1.26-.9 2.53-1.28 3.81l.06.03c.55-1.21 1.07-2.44 1.6-3.66l1.56-3.67 1.54-3.67c.51-1.16 1.01-2.35 1.68-3.39.74 1.1 1.39 2.29 1.96 3.51.58 1.24 1.08 2.52 1.52 3.82-.5 1.34-.99 2.67-1.52 3.99l-.81 2.03c-.23.53-.47 1.07-.73 1.56-.47-.48-.91-1.03-1.24-1.65-.39-.73-.64-1.55-.68-2.41.43-1 .84-2.02 1.26-3.03l-.05-.03c-.52.98-1.05 1.95-1.55 2.94l-.02.04v.06c-.03.96.2 1.92.6 2.74.2.41.43.81.69 1.17.26.36.53.71.87 1.02l.25.23.19-.31c.4-.67.69-1.34.99-2.01.29-.68.57-1.36.83-2.05.51-1.38 1.01-2.77 1.47-4.18l.04-.12-.07-.11z" fill="#c27b55" stroke-width="none" opacity="1"></path></g></g><g id="svga-group-faceshape-wrap" transform="matrix(1,0,0,1,0,0)"><g id="svga-group-faceshape-single"><path id="SvgjsPath24150" d="M140.4 54.9c-2.2-10-6.3-16-15.2-20.8-9.3-5-25.2-4.8-25.2-4.8s-15.9-.2-25.2 4.8c-8.8 4.8-13 10.8-15.2 20.8-.9 4 0 13.6 0 13.6s1.2 11.9 1.2 15.3-.6 9.6.2 16.4 6.8 23.5 18.1 37.6 20.9 13.8 20.9 13.8 9.6.3 20.9-13.8 17.3-30.9 18.1-37.6c.8-6.8.2-13 .2-16.4s1.2-15.3 1.2-15.3c-.1-.1.9-9.6 0-13.6z" fill="#f0c7b1" stroke-width="none" opacity="1"></path><path id="SvgjsPath24151" d="M140.4 54.9c-2.2-10-6.3-16-15.2-20.8-9.3-5-25.2-4.8-25.2-4.8s-15.9-.2-25.2 4.8c-8.8 4.8-13 10.8-15.2 20.8-.9 4 0 13.6 0 13.6s1.2 11.9 1.2 15.3-.6 9.6.2 16.4 6.8 23.5 18.1 37.6 20.9 13.8 20.9 13.8 9.6.3 20.9-13.8 17.3-30.9 18.1-37.6c.8-6.8.2-13 .2-16.4s1.2-15.3 1.2-15.3c-.1-.1.9-9.6 0-13.6zm0 10.1c-.1 1.1-.2 2.2-.3 3.4l-.5 4.9c-.2 1.6-.4 3.3-.5 4.9-.2 1.7-.3 3.3-.4 5-.1 1.7 0 3.3 0 5 0 3.3-.1 6.6-.4 9.8 0 .4-.1.8-.1 1.2l-.1.6-.1.6c-.1.8-.3 1.6-.5 2.3-.4 1.6-.9 3.1-1.4 4.7-1.1 3.1-2.3 6.1-3.7 9.1s-2.9 5.9-4.6 8.7c-.4.7-.8 1.4-1.3 2.1-.4.7-.8 1.4-1.3 2.1l-1.4 2-1.4 2c-.5.7-1 1.3-1.5 2l-.7 1-.4.5-.4.5-1.6 1.9c-.5.6-1.1 1.2-1.7 1.8-2.3 2.3-4.7 4.4-7.4 6.1-1.4.8-2.7 1.6-4.2 2.1-.7.3-1.5.5-2.2.7s-1.5.3-2.2.4c-.6 0-1.4-.1-2.1-.2-.7-.2-1.5-.4-2.2-.6-1.5-.5-2.9-1.2-4.3-2-2.8-1.6-5.3-3.7-7.6-5.9-2.3-2.3-4.4-4.8-6.3-7.4-2-2.6-3.8-5.4-5.5-8.1-1.7-2.8-3.3-5.7-4.7-8.7-1.4-3-2.7-6-3.8-9.1-.3-.8-.5-1.6-.8-2.3l-.4-1.2-.3-1.2-.3-1.2c-.1-.4-.2-.8-.2-1.2-.1-.4-.1-.8-.2-1.2l-.1-1.2c-.3-3.3-.4-6.6-.3-9.9 0-1.7.1-3.3.1-5s-.1-3.3-.3-5c-.2-3.3-.5-6.6-.8-9.9s-.4-6.6-.3-9.9c0-.8.1-1.6.2-2.4.1-.8.2-1.5.5-2.3.4-1.6.9-3.1 1.5-4.7 1.2-3 2.8-5.8 4.9-8.2.5-.6 1.1-1.1 1.7-1.7.6-.5 1.2-1 1.9-1.5.6-.5 1.3-.9 2-1.4.7-.4 1.4-.9 2.1-1.2.4-.2.7-.4 1.1-.6l1.1-.5.5-.3.6-.2 1.1-.4c.4-.1.8-.3 1.1-.4.4-.1.8-.3 1.1-.4l1.2-.3 1.2-.3c3.2-.7 6.4-1.2 9.6-1.5 1.6-.1 3.3-.3 4.9-.3.8 0 1.6-.1 2.4-.1h2.4c3.3.1 6.5.3 9.8.7 3.2.4 6.5 1.1 9.5 2.2.4.1.8.3 1.1.4l1.1.5.6.3.5.3 1.1.6c1.4.8 2.8 1.7 4.1 2.7s2.5 2.2 3.5 3.4c1.1 1.3 2 2.6 2.8 4.1 1.6 2.9 2.5 6.1 3.3 9.3.2 1.1.3 2.2.3 3.4v3.4c0 1 0 2.1-.1 3.2z" fill="#c27b55" stroke-width="none" opacity="1"></path></g></g><g id="svga-group-mouth-single-move" transform="matrix(1,0,0,1,0,0)"><g id="svga-group-mouth-single" transform="matrix(1,0,0,1,0,0)"><path id="SvgjsPath24259" d="M115.95 118.85c-2.72.91-5.53 1.92-7.88 2.91-2.5 1.06-4.07 2.57-6.76 3.19-2.65.62-5.3-.52-8.01-.37-2.69.14-6.08 2.24-7.87-.41-.95-1.41-2.74.41-1.63 1.37 1.64 1.41 3.91 2.59 5.96 2.73 3.29.23 7.06.3 10.34-.05 6.21-.67 11.72-3.75 17.44-6.41 1.86-1.3 1.02-3.63-1.59-2.96z" fill="#da7c87" stroke-width="none" opacity="1"></path><path id="SvgjsPath24260" d="M107.55 131.3c-1.8-.09-3.6.28-5.4.35-1.81.07-3.62-.07-5.43-.06-.38 0-.47.57-.09.67 3.35.88 7.85 1.04 11.07-.39.3-.13.13-.55-.15-.57z" fill="#e1ac8f" stroke-width="none" opacity="1"></path></g></g><g id="svga-group-eyes-left-move" transform="matrix(1,0,0,1,0,0)"><g id="svga-group-eyes-left" transform="matrix(1,0,0,1,0,0)"><g id="svga-group-eyesback-left"><path id="SvgjsPath24106" d="M80.2 74.2c7.5 0 13.5 5.8 13.5 13s-6 13-13.5 13-13.5-5.8-13.5-13 6-13 13.5-13z" fill="#ffffff" stroke-width="none" opacity="1"></path></g><g id="svga-group-eyesiriswrapper-left" transform="matrix(1,0,0,1,0,0)"><g id="svga-group-eyesiriscontrol-left" transform="matrix(1,0,0,1,0,0)"><g id="svga-group-eyesiris-left" transform="matrix(1,0,0,1,0,0)"><path id="SvgjsPath24185" d="M80.2 81.9c2.9 0 5.3 2.4 5.3 5.3s-2.4 5.3-5.3 5.3-5.3-2.4-5.3-5.3 2.4-5.3 5.3-5.3z" fill="#5f3f15" stroke-width="none" opacity="1"></path><path id="SvgjsPath24186" d="M77.4 88.7c0 1.3.5 2.5 1.3 3.3.5.1 1 .2 1.5.2 2.8 0 5.1-2.3 5.1-5.1 0-1-.3-2-.8-2.8-.7-.3-1.4-.5-2.2-.5-2.8.1-4.9 2.3-4.9 4.9z" fill="#6e4e23" stroke-width="none" opacity="1"></path><path id="SvgjsPath24187" d="M80.2 84.5c1.5 0 2.7 1.2 2.7 2.7s-1.2 2.7-2.7 2.7-2.7-1.2-2.7-2.7 1.2-2.7 2.7-2.7z" fill="#000000" stroke-width="none" opacity="1"></path><path id="SvgjsPath24188" d="M79 84.5c.5 0 .9.4.9.9s-.4.9-.9.9-1-.4-1-.9.5-.9 1-.9zm3.1 4.3c.2 0 .4.2.4.4s-.2.4-.4.4-.4-.2-.4-.4.2-.4.4-.4z" fill="#ffffff" stroke-width="none" opacity="1"></path><path id="SvgjsPath24189" d="M80.2 81.6c-3.1 0-5.6 2.5-5.6 5.6s2.5 5.6 5.6 5.6 5.6-2.5 5.6-5.6-2.5-5.6-5.6-5.6zm0 .6c.2 0 .4 0 .7.1h.5-.2c.1 0 .2 0 .2.1.1 0 .1 0 .2.1.2.1.3.2.5.3.1-.1.2-.1.3-.1.1 0 .1.1.2.1.1.1.1.1.1.2.3-.1.6.2.5.5.3-.2.8.3.6.6.2-.1.4 0 .4.2s.1.4-.1.5c.2 0 .5.1.6.3.1.2.1.5-.1.7.2 0 .4.2.5.4s0 .5-.2.6c.2.1.3.3.3.5s-.1.4-.3.5c.2.1.3.3.3.5s-.2.4-.4.4c.3.2.1.8-.2.8.1.1.1.2.1.3-.1.1-.1.3-.2.4s-.2.1-.4.1c.1.4-.3.8-.8.7 0 .2 0 .3-.1.4s-.1.1-.2.1c-.2.1-.3 0-.5-.1 0 .2-.1.4-.3.5-.2.1-.4 0-.6-.2 0 .2-.1.3-.2.4-.2 0-.3.1-.5.1-.1-.1-.3-.2-.3-.3 0 .2-.2.4-.4.4s-.4-.2-.5-.4c-.1.2-.3.3-.6.2H79c-.2-.1-.3-.3-.3-.5-.2.2-.4.2-.6.1s-.3-.3-.3-.5c-.2.1-.5.1-.6 0h-.1c-.2-.2-.2-.4-.1-.7-.2.2-.4.1-.6 0l-.1-.1c-.1-.2-.1-.4 0-.6-.2 0-.4-.1-.6-.2-.4-.7-.7-1.6-.7-2.4.1-2.8 2.4-5 5.2-5zm2 .4s-.1 0 0 0z" fill="#402501" stroke-width="none" opacity="1"></path><path id="SvgjsPath24190" d="M76.5 89.7c.2 0 .3-.1.4-.2.2-.1.3-.2.4-.3v-.1c-.2.1-.3.1-.4.2-.1.2-.3.2-.4.4 0-.1 0 0 0 0zm-1.2-1.5c.1 0 .3 0 .4-.1.2 0 .3-.1.5-.1v-.1c-.2 0-.3 0-.5.1s-.3 0-.4.2c0-.1 0 0 0 0zm.5-2.5c.4.1.8.3 1.2.4 0 0 .1 0 0-.1-.4-.1-.8-.3-1.2-.3 0-.1 0 0 0 0zm.2-.7c.2.2.4.3.7.4 0 0 .1 0 0-.1-.2-.2-.5-.3-.7-.3-.1-.1-.1-.1 0 0zm3.7 6.5c.1-.3.2-.7.2-1 0 0-.1-.1-.1 0-.1.3-.1.7-.1 1zm3.5-4c.3.1.7.1 1.1.1v-.1h-1.1zm.2-.7c.3 0 .7.1 1 0v-.1c-.3 0-.6 0-1 .1zm.2-2.7c-.3.2-.6.5-.9.8 0 0 0 .1 0 0 .3-.2.6-.5.9-.8.1 0 0 0 0 0zm-2.8-1.3c-.1.3-.2.5-.2.8 0 .1.1.1.1 0 .1-.2.1-.5.1-.8zm-2.9.3c.1.2.2.5.3.7h.1c-.1-.2-.3-.4-.4-.7z" fill="#402501" stroke-width="none" opacity="1"></path></g></g></g><g id="svga-group-eyesfront-left"><path id="SvgjsPath24114" d="M80.2 73.7c-7.8 0-14.1 6.1-14.1 13.6s6.3 13.6 14.1 13.6 14.1-6.1 14.1-13.6S88 73.7 80.2 73.7zM79 90.6c-6.5-.3-11.9-2.5-12.1-2.9s4.4-3.8 14.1-3.4c9.7.5 11.6 5.2 11.6 5.2-1.6 1-7.2 1.4-13.6 1.1z" fill="#f0c7b1" stroke-width="none" opacity="1"></path><path id="SvgjsPath24115" d="M86 90.8c1.1-.1 2.3-.2 3.4-.3.6-.1 1.1-.2 1.7-.3.6-.2 1.1-.3 1.6-.6-.2-.6-.6-1-.9-1.4l-.6-.6c-.2-.2-.4-.4-.7-.5-.9-.7-2-1.2-3-1.6-2.2-.8-4.5-1.1-6.7-1.2-2.3-.1-4.6.1-6.8.6-1.1.2-2.2.5-3.3.8-1.1.4-2.2.8-3.1 1.4l-.3.3c-.1.1-.2.2-.3.4v.2s0 .1.1.1l.1.1.2.1c.1.1.3.1.4.2.5.3 1.1.5 1.6.7 1.1.4 2.2.7 3.3 1 2.2.5 4.5.9 6.8 1 1.9-.2 4.2-.3 6.5-.4zm-16.8-2.3c-.5-.2-1.1-.4-1.6-.6-.1-.1-.2-.1-.4-.2l-.2-.1c0-.1.1-.2.2-.2l.3-.3c.9-.6 1.9-1.1 3-1.5 1.1-.4 2.2-.7 3.3-.8 2.2-.4 4.5-.4 6.8-.3 1.1.1 2.2.2 3.4.3.6.1 1.1.2 1.7.3.5.2 1.1.3 1.6.5 1.1.3 2.1.8 3 1.4.9.6 1.8 1.4 2.3 2.4-.5.2-1.1.4-1.6.5-.6.1-1.1.2-1.7.2-1.1.1-2.2.2-3.4.2-2.3.1-4.5 0-6.8-.1-2.2-.1-4.5-.4-6.7-.9-1-.1-2.1-.4-3.2-.8z" fill="#000000" stroke-width="none" opacity="1"></path><path id="SvgjsPath24116" d="M76.9 94.9C88.7 96.3 93.6 91 93.6 91c-8.1 4.6-16.7 3.9-16.7 3.9zm7.9-13.1c4.3 1.4 5.9 2.8 5.9 2.8s-1.1-1.4-6.1-3.2c-5-1.8-14.6.4-14.6.4s10.2-1.6 14.8 0z" fill="#d19271" stroke-width="none" opacity="1"></path></g></g></g><g id="svga-group-eyes-right-move" transform="matrix(1,0,0,1,0,0)"><g id="svga-group-eyes-right" transform="matrix(1,0,0,1,0,0)"><g id="svga-group-eyesback-right"><path id="SvgjsPath24107" d="M119.8 74.2c7.5 0 13.5 5.8 13.5 13s-6 13-13.5 13-13.5-5.8-13.5-13 6-13 13.5-13z" fill="#ffffff" stroke-width="none" opacity="1"></path></g><g id="svga-group-eyesiriswrapper-right" transform="matrix(1,0,0,1,0,0)"><g id="svga-group-eyesiriscontrol-right" transform="matrix(1,0,0,1,0,0)"><g id="svga-group-eyesiris-right" transform="matrix(1,0,0,1,0,0)"><path id="SvgjsPath24191" d="M119.8 82.5c2.6 0 4.7 2.1 4.7 4.7s-2.1 4.7-4.7 4.7-4.7-2.1-4.7-4.7 2.1-4.7 4.7-4.7z" fill="#5f3f15" stroke-width="none" opacity="1"></path><path id="SvgjsPath24192" d="M117.3 88.5c0 1.1.4 2.2 1.2 2.9.4.1.8.2 1.3.2 2.4 0 4.4-2 4.4-4.4 0-.9-.3-1.8-.7-2.4-.6-.3-1.2-.5-1.9-.5-2.4 0-4.3 1.9-4.3 4.2z" fill="#6e4e23" stroke-width="none" opacity="1"></path><path id="SvgjsPath24193" d="M119.8 84.8c1.3 0 2.4 1.1 2.4 2.4s-1.1 2.4-2.4 2.4-2.4-1.1-2.4-2.4 1.1-2.4 2.4-2.4z" fill="#000000" stroke-width="none" opacity="1"></path><path id="SvgjsPath24194" d="M118.7 84.8c.5 0 .8.4.8.8s-.4.8-.8.8-.8-.4-.8-.8.4-.8.8-.8zm2.8 3.8c.2 0 .3.1.3.3s-.1.3-.3.3-.3-.1-.3-.3.1-.3.3-.3z" fill="#ffffff" stroke-width="none" opacity="1"></path><path id="SvgjsPath24195" d="M119.8 82.3c-2.7 0-4.9 2.2-4.9 4.9s2.2 4.9 4.9 4.9 4.9-2.2 4.9-4.9-2.2-4.9-4.9-4.9zm.9.6zm-.9-.1c.2 0 .4 0 .6.1h.4c.1 0 .2.1.3.1.1.1.3.1.4.2.1-.1.1-.1.2-.1s.2.1.3.1c0 0 .1.1.1.2.2-.1.5.2.5.4.3-.1.7.2.6.5.1 0 .3 0 .4.2.1.1 0 .3-.1.4.2 0 .4.1.5.3.1.2.1.4-.1.6.2 0 .3.1.4.2 0 .1.1.1.1.2 0 .2-.1.3-.2.4.2.1.2.2.3.4v.1c0 .2-.1.3-.3.4.1.1.2.2.2.3v.2c-.1.1-.2.3-.3.3.2.2.1.7-.2.7.1.1.1.2.1.2-.1.2-.2.3-.2.4-.1.1-.2.1-.3.1.1.4-.3.7-.7.7 0 .1 0 .2-.1.3-.1.1-.2.1-.2.2-.1 0-.3 0-.4-.1 0 .2-.1.4-.3.4-.2.1-.4 0-.5-.2 0 .1-.1.3-.2.4-.1 0-.3.1-.4.1-.1-.1-.2-.1-.3-.3 0 .2-.2.3-.4.3s-.4-.1-.4-.3c-.1.2-.3.3-.5.2-.2-.1-.3-.2-.3-.4-.1.1-.4.2-.5.1-.2-.1-.3-.3-.3-.4-.2.1-.4.1-.6 0s-.2-.4-.1-.6c-.2.1-.4.1-.6 0-.1-.2-.2-.4 0-.6-.2 0-.4-.1-.5-.2s-.1-.2-.2-.3c-.2-.6-.4-1.2-.4-1.8-.2-2.4 1.7-4.4 4.2-4.4zm-2.5 8.1zm-1.2-1.2zm.6.6c0 .1 0 .1 0 0 0 .1 0 .1 0 0z" fill="#402501" stroke-width="none" opacity="1"></path><path id="SvgjsPath24196" d="M116.6 89.4c.1 0 .2-.1.4-.2.1-.1.3-.1.4-.2v-.1c-.1.1-.3.1-.4.2s-.3.1-.4.3c-.1-.1 0 0 0 0zm-1.1-1.4c.1 0 .2 0 .4-.1.1 0 .3-.1.4-.1v-.1c-.1 0-.3 0-.4.1s-.3.1-.4.2zm.5-2.1c.3.1.7.2 1 .3 0 0 .1 0 0 0-.3-.2-.7-.3-1-.3-.1-.1-.1 0 0 0zm.1-.7c.2.1.4.3.6.4 0 0 .1 0 0-.1l-.6-.3zm3.3 5.8c.1-.3.2-.6.2-.9 0 0-.1-.1-.1 0-.1.2-.1.6-.1.9-.1 0 0 0 0 0zm3-3.5c.3.1.6.1.9.1-.2-.1-.6-.1-.9-.1zm.2-.6h.8v-.1c-.2 0-.5 0-.8.1 0-.1 0 0 0 0zm.2-2.4c-.3.2-.6.4-.8.7.2-.2.5-.4.8-.7zm-2.5-1.1c-.1.2-.1.5-.1.7h.1v-.7zm-2.5.2.3.6h.1c-.2-.2-.3-.4-.4-.6z" fill="#402501" stroke-width="none" opacity="1"></path></g></g></g><g id="svga-group-eyesfront-right"><path id="SvgjsPath24117" d="M119.8 73.7c-7.8 0-14.1 6.1-14.1 13.6s6.3 13.6 14.1 13.6 14.1-6.1 14.1-13.6-6.3-13.6-14.1-13.6zm.5 15.6c-6.4.2-11.3.4-13-.4 0 0 1.9-3.6 11.5-3.9 9.6-.4 14.2 2.3 14 2.6-.2.3-6.1 1.5-12.5 1.7z" fill="#f0c7b1" stroke-width="none" opacity="1"></path><path id="SvgjsPath24120" d="M132.8 87.3c-.1-.1-.2-.2-.4-.2-2-1-4.2-1.4-6.4-1.8-2.2-.3-4.4-.5-6.6-.5-2.2 0-4.4.3-6.6.8-1.1.3-2.1.7-3.1 1.2-.5.2-1 .6-1.4.9-.4.4-.8.7-1.1 1.3.5.3 1.1.4 1.6.5.6.1 1.1.2 1.7.2 1.1.1 2.2.1 3.3.1 2.2 0 4.4-.1 6.6-.1 2.2-.1 4.4-.3 6.6-.6 1.1-.2 2.2-.3 3.3-.6.5-.1 1.1-.2 1.6-.4.3-.1.5-.2.8-.3 0 0 .1 0 .1-.1l.1-.1s.1-.1.1-.2c-.1-.1-.2-.1-.2-.1zm-1 .4c-.5.1-1.1.2-1.6.3-1.1.2-2.2.3-3.2.5-2.2.3-4.4.4-6.6.5l-6.6.2c-1.1 0-2.2.1-3.3 0-.6 0-1.1 0-1.6-.1s-1.1-.1-1.6-.3c.3-.4.7-.8 1.2-1.1.4-.3.9-.6 1.4-.8 1-.5 2-.8 3.1-1.1 2.1-.5 4.3-.7 6.5-.8 2.2-.1 4.4-.1 6.6.2 1.1.1 2.2.4 3.2.7s2.1.7 3 1.2c.1.1.2.1.3.2-.3.3-.5.4-.8.4z" fill="#000000" stroke-width="none" opacity="1"></path><path id="SvgjsPath24121" d="M107.1 90.3s4.8 5.2 16.5 3.9c0-.1-8.5.6-16.5-3.9zm6-6.1c4.4-2.2 14.4-2.2 14.4-2.2s-9.7-.7-14.3 1.8c-4.7 2.5-5.5 4-5.5 4s1.4-1.6 5.4-3.6z" fill="#d19271" stroke-width="none" opacity="1"></path></g></g></g><g id="svga-group-facehighlight-single"></g><g id="svga-group-eyebrows-left-move" transform="matrix(1,0,0,1,3,0)"><g id="svga-group-eyebrows-left-rotate" transform="matrix(0.9825664732332883,-0.1859116071629146,0.1859116071629146,0.9825664732332883,-12.117280415588283,15.959982829151905)"><g id="svga-group-eyebrows-left" transform="matrix(1,0,0,1,0,0)"><path id="SvgjsPath24027" d="M67.87 76.23s1.96-4.66 6.27-6.5c4.32-1.84 16.59 1.19 15.86 4.07-.73 2.87-4.1 1.64-6.44.58s-7.93-6.39-15.69 1.85z" fill="#2a232b" stroke-width="none" opacity="1"></path><path id="SvgjsPath24028" d="M90.03 72.96c-.29-.52-.75-.86-1.2-1.16-.47-.29-.96-.54-1.45-.76-1-.43-2.04-.76-3.09-1.05-2.1-.56-4.25-.98-6.44-1.04-1.09-.01-2.21.05-3.28.38-1.06.38-2.02.95-2.87 1.64-.86.69-1.6 1.52-2.24 2.39-.33.44-.62.9-.89 1.37-.14.24-.26.48-.38.72-.06.12-.12.24-.17.37l-.08.19-.04.09-.02.05c-.01.03-.01.06-.01.08.19-.18.4-.35.61-.55.21-.21.41-.36.62-.55.2-.18.41-.35.62-.51.21-.17.42-.34.64-.49.87-.63 1.8-1.17 2.79-1.56a8.6 8.6 0 0 1 3.08-.63c.53 0 1.05.05 1.57.13.52.09 1.03.24 1.52.42 1 .35 1.93.86 2.87 1.4.47.27.94.56 1.46.78.5.22 1.01.43 1.53.6.52.18 1.05.34 1.61.42.55.09 1.13.12 1.7-.03.28-.07.56-.19.8-.37s.43-.41.58-.66c.14-.25.24-.53.31-.8.03-.15.04-.31.02-.46-.05-.13-.1-.28-.17-.41zm-.18.81c-.07.25-.17.49-.3.7-.26.43-.69.72-1.17.82-.49.11-1.01.07-1.53-.02-.51-.1-1.02-.25-1.52-.43s-.99-.39-1.48-.61c-.48-.21-.93-.49-1.4-.77-.93-.56-1.91-1.09-2.95-1.46-1.05-.37-2.17-.57-3.28-.53-1.11.05-2.22.31-3.22.75-1.01.44-1.94 1.04-2.79 1.72-.22.17-.42.34-.62.53-.21.18-.41.36-.6.56-.19.19-.4.38-.56.57-.17.19-.33.4-.53.61 1.02-1.85 2.36-3.63 4.05-4.92.84-.64 1.78-1.18 2.76-1.52 1-.29 2.08-.37 3.15-.39 1.07-.01 2.15.05 3.22.18 1.07.13 2.13.32 3.18.59 1.05.27 2.07.61 3.05 1.06.49.22.97.47 1.41.78.43.3.85.66 1.08 1.1a1 1 0 0 1 .05.68z" fill="#1b141c" stroke-width="none" opacity="1"></path></g></g></g><g id="svga-group-eyebrows-right-move" transform="matrix(1,0,0,1,-3,0)"><g id="svga-group-eyebrows-right-rotate" transform="matrix(0.9825664609031615,0.1859116723291901,-0.1859116723291901,0.9825664609031615,15.353313654316139,-21.36217047060947)"><g id="svga-group-eyebrows-right" transform="matrix(1,0,0,1,0,0)"><path id="SvgjsPath24029" d="M132.8 72.8s-2.65-4.3-7.2-5.46c-4.55-1.16-16.21 3.72-15.05 6.45s4.3.99 6.45-.41c2.16-1.41 6.87-7.53 15.8-.58z" fill="#2a232b" stroke-width="none" opacity="1"></path><path id="SvgjsPath24030" d="m132.8 72.74-.03-.05-.05-.09-.11-.17c-.07-.12-.15-.23-.23-.34-.16-.22-.32-.44-.49-.65-.34-.43-.7-.84-1.09-1.22-.78-.77-1.63-1.47-2.58-2.02-.95-.56-1.98-.97-3.09-1.18-1.11-.16-2.22-.06-3.3.13-2.16.39-4.22 1.13-6.2 2.01-.99.45-1.97.93-2.89 1.51-.46.29-.91.61-1.32.97-.41.37-.81.77-1.01 1.33-.05.14-.08.29-.08.44 0 .15.03.31.09.45.11.26.25.51.43.74.18.23.41.43.67.57.26.14.56.22.85.24.59.06 1.15-.06 1.68-.23s1.04-.41 1.52-.66c.49-.26.96-.54 1.42-.83.48-.29.9-.66 1.32-.99.84-.68 1.68-1.33 2.62-1.83.46-.25.94-.48 1.44-.64.5-.17 1.01-.29 1.53-.37 1.04-.14 2.11-.1 3.14.15 1.03.24 2.04.62 3 1.11.24.12.47.25.71.38s.47.26.7.41c.23.15.45.27.69.45.24.16.48.3.69.45-.01-.01-.01-.05-.03-.07zm-.63-.48c-.19-.16-.43-.32-.64-.48-.22-.16-.44-.31-.67-.46-.23-.15-.46-.3-.7-.43-.95-.54-1.95-1-3.02-1.28a8.942 8.942 0 0 0-3.3-.25c-1.11.13-2.18.5-3.16 1.03-.98.52-1.86 1.2-2.7 1.89-.42.35-.82.7-1.26.98-.45.3-.9.58-1.37.83-.47.26-.95.49-1.44.66-.49.17-1.01.29-1.5.26-.5-.03-.96-.25-1.29-.63-.16-.19-.3-.41-.41-.65-.1-.21-.1-.45-.03-.69.15-.48.51-.89.89-1.26.39-.37.82-.69 1.27-.98.9-.59 1.86-1.09 2.86-1.51.99-.42 2.02-.78 3.05-1.07 1.04-.29 2.09-.52 3.15-.68 1.06-.15 2.13-.24 3.17-.1 1.02.18 2.04.57 2.96 1.08 1.87 1.02 3.47 2.57 4.76 4.24-.23-.16-.42-.34-.62-.5z" fill="#1b141c" stroke-width="none" opacity="1"></path></g></g></g><g id="svga-group-beardwrap" transform="matrix(1,0,0,1,0,0)"><g id="svga-group-beard-single-move" transform="matrix(1,0,0,1,0.5,1)"><g id="svga-group-beard-single" transform="matrix(0.8499994000000002,0,0,0.8499994000000002,15.003810816089612,20.842770596090674)"><path id="SvgjsPath24018" d="M91.8 134.75c.35 3.01 5.21 7.92 5.21 7.92l.69-1.16 1.39 1.62 2.08-2.43v1.39l1.62-1.62-.23 2.2s3.74-2.85 5.25-7.48c-2.3-.41-5.37-.44-8.37-.52-2.55-.08-5.58-.13-7.64.08z" fill="#2a232b" stroke-width="none" opacity="1"></path><path id="SvgjsPath24019" d="M107.88 134.82c-1.34-.26-2.69-.35-4.04-.4-1.34-.06-2.68-.08-4.02-.08-1.34-.01-2.68-.02-4.02.04-1.35.05-2.66.12-4.04.35.02.87.36 1.6.69 2.35.36.73.78 1.42 1.24 2.09.45.67.95 1.3 1.46 1.93.52.62 1.04 1.23 1.6 1.82l.3.32.22-.38.46-.79c.37.42.74.84 1.13 1.26l.22.24.19-.24 1.73-2.17.02.95.01.32.22-.23c.45-.46.9-.92 1.36-1.37-.07.61-.14 1.23-.22 1.84l-.06.38.31-.24c1.24-.96 2.35-2.07 3.29-3.33.95-1.25 1.69-2.66 2.22-4.16l.14-.4-.41-.1zm-2.42 4.29c-.78 1.14-1.68 2.22-2.7 3.16.05-.6.11-1.19.16-1.79l.03-.35-.24.25c-.45.47-.93.93-1.4 1.39l.02-1.07.01-.41-.28.3-1.95 2.12c-.38-.48-.76-.95-1.16-1.42l-.29-.34-.23.38-.47.77c-1-1.03-1.95-2.12-2.83-3.26-.49-.62-.95-1.27-1.35-1.95-.41-.66-.77-1.41-.94-2.13 1.28-.02 2.66.01 3.98.06l4 .19c2.52.13 5.04.16 7.49.49-.2.56-.41 1.12-.69 1.65-.35.68-.72 1.34-1.16 1.96z" fill="#1b141c" stroke-width="none" opacity="1"></path></g></g></g><g id="svga-group-mustache-single-move" transform="matrix(1,0,0,1,-1,1)"><g id="svga-group-mustache-single" transform="matrix(0.7999992000000002,0,0,0.7999992000000002,19.96008121329649,24.035652172497535)"><path id="SvgjsPath24351" d="M130.2 125.3s-6.6-10.9-29-11.8c-18.3-.7-25.8 4.9-31.4 11.3 0 0 15.2 5.2 29.9-2 0-.1 12.5 7.8 30.5 2.5z" fill="#2a232b" stroke-width="none" opacity="1"></path><path id="SvgjsPath24352" d="M127.5 122c-.5-.5-1.1-.9-1.6-1.4-.6-.4-1.1-.8-1.7-1.2-2.3-1.6-4.9-2.8-7.6-3.7-1.3-.5-2.7-.8-4.1-1.2-1.4-.3-2.8-.6-4.1-.8-2.8-.4-5.6-.6-8.4-.7-5.6 0-11.3.5-16.6 2.2-2.7.9-5.2 2.1-7.6 3.7-2.3 1.6-4.4 3.5-6.3 5.6l-.3.3.5.2c2.5.8 5 1.3 7.6 1.6 2.6.3 5.2.4 7.7.3 1.3 0 2.6-.2 3.9-.4 1.3-.2 2.6-.4 3.8-.8 2.4-.6 4.8-1.5 7.1-2.5 2.3 1.3 4.7 2.2 7.2 2.8 2.6.7 5.2 1.1 7.8 1.3 2.6.1 5.3.1 7.9-.3 1.3-.1 2.6-.4 3.9-.7 1.3-.3 2.6-.7 3.8-1.1-.9-1.2-1.9-2.2-2.9-3.2zm-1.2 4.1c-1.3.2-2.6.4-3.9.5-2.6.3-5.2.2-7.8 0-2.6-.2-5.1-.7-7.6-1.4s-4.9-1.6-7.1-2.9l-.2-.1-.3.1c-2.3 1-4.6 2-7.1 2.6-1.2.4-2.5.5-3.7.8-1.2.2-2.5.3-3.8.4-2.5.2-5.1.1-7.6-.1-2.3-.2-4.7-.7-7-1.3 1.7-2 3.6-3.8 5.7-5.3 2.3-1.6 4.8-2.8 7.4-3.7 5.3-1.7 11-2 16.5-1.8 2.8.1 5.5.3 8.3.7 1.4.2 2.7.5 4.1.8 1.3.4 2.7.7 4 1.1 2.6.9 5.2 1.9 7.6 3.4 2.3 1.4 4.6 3.2 6.2 5.4-1.2.2-2.4.5-3.7.8zm-32.6-6.2c-.8.6-1.5 1.2-2.3 1.7-.4.3-.9.6-1.3.9.4-.8.9-1.7 1.3-2.6.6-1.2 1.2-2.5 1.8-3.8l.1-.3-.3.2c-2.1 1.3-4.4 2.4-6.6 3.6-1.8 1-3.7 2-5.5 2.9.5-.9 1-1.7 1.4-2.6l.6-1.1-1 .6c-2.5 1.4-4.9 2.8-7.3 4.4v.1c2.2-1 4.4-2.1 6.6-3.3-.5.9-1 1.7-1.5 2.6l-.6 1 1.1-.5c1.2-.5 2.3-1.1 3.4-1.7 1.1-.6 2.2-1.2 3.2-1.9 2.1-1.2 4-2.5 6.1-3.8-.2.5-.4 1-.7 1.5-.3.6-.6 1.2-1 1.8l-2.1 3.6-.7 1.1 1.1-.7c1.7-1 3.2-2.2 4.7-3.4 1.5-1.2 2.9-2.5 4.3-3.9l-.1-.1-4.7 3.7zm30.5 2.2.7 2.4c-1.1-.3-2-.8-3-1.3-1.1-.6-2.1-1.2-3.1-1.9s-2-1.3-3-2.1c-1-.7-2-1.4-2.9-2.2l-.9-.7.3 1.1c.4 1.4 1.1 2.7 1.9 3.9.7 1.1 1.4 2 2.2 3-1.4-.6-2.8-1.4-4-2.3-1.4-1-2.8-2.1-4-3.3l-.6-.6.1.8c.1 1.3.3 2.7.4 4-1.5-1.4-2.9-2.9-4.4-4.4l-.1.1c.7 1 1.4 1.9 2.2 2.8.8.9 1.6 1.8 2.4 2.6l.6.5-.1-.8c-.1-1.3-.3-2.7-.4-4.1 1.2.9 2.4 1.8 3.7 2.6 1.5.9 3 1.8 4.6 2.5l.5.2-.3-.4c-.8-1.1-1.6-2.3-2.3-3.6-.5-.9-.9-1.8-1.3-2.7 1.6 1.3 3.3 2.5 5.1 3.6 1.1.7 2.1 1.2 3.3 1.8 1.1.5 2.3 1 3.5 1.2l.3.1-.1-.3-1.3-2.5z" fill="#1b141c" stroke-width="none" opacity="1"></path></g></g><g id="svga-group-nose-single-move" transform="matrix(1,0,0,1,0,0)"><g id="svga-group-nose-single" transform="matrix(1,0,0,1,0,0)"><path id="SvgjsPath24244" d="M99.1 116.5c.67.12 4.53-3.31 4.53-3.31s2.06 1.59 3.62 1.43c1.56-.16 2.44-1.08 3-1.96.56-.88-.89-3.1-1.78-4.41-.9-1.31-3.54-5.22-4.09-7.02-1.07-3.45-3-4.76-4.92-4.64-1.92.12-4.04 1.52-4.6 3.44-.56 1.92-.72 4.28-1.8 5.76s-3.32 4-3.56 4.72c-.24.72-.11 2.8 1.24 3.56 1.73.97 4.3-.51 4.3-.51s3.18 2.78 4.06 2.94z" fill="#f0c7b1" stroke-width="none" opacity="1"></path><path id="SvgjsPath24245" d="M110.28 110.87c-.42-1.01-1.08-1.86-1.81-2.61.57.88 1.08 1.8 1.39 2.76.15.48.24.97.16 1.42-.05.23-.12.41-.26.6-.13.2-.29.39-.47.54-.69.66-1.7.91-2.68.78-.49-.06-.99-.2-1.46-.39-.45-.16-.86-.39-1.29-.62.38-.56.72-1.15 1.02-1.76-.97.91-1.89 1.83-2.87 2.64-.49.4-.98.8-1.51 1.09-.51.3-1.07.55-1.51.52-.12.01-.21-.02-.31-.04-.09-.05-.17-.06-.3-.16-.24-.15-.49-.36-.74-.55-.5-.39-.99-.82-1.49-1.23-.99-.84-1.99-1.69-3.07-2.48a21.8 21.8 0 0 0 1.68 2.24c-.5.22-1.01.41-1.53.52-.64.12-1.3.15-1.84-.1-1.09-.53-1.72-1.83-1.54-2.94.05-.28.13-.5.3-.74.17-.26.36-.53.56-.79.4-.52.82-1.02 1.26-1.52l.66-.74c.26-.28.46-.56.67-.84.41-.57.77-1.18 1.07-1.83.3-.65.48-1.4.59-2.06.12-.68.22-1.35.3-2.02.15-1.35.27-2.69.31-4.04.1-2.7.03-5.42-.51-8.07.05 2.69-.14 5.35-.4 8-.15 1.32-.29 2.65-.5 3.96-.1.66-.2 1.31-.32 1.96-.12.66-.27 1.22-.54 1.79a9.34 9.34 0 0 1-.94 1.65c-.18.26-.37.53-.57.74-.23.26-.45.51-.66.78-.43.53-.85 1.07-1.24 1.63-.2.28-.39.57-.57.88-.2.33-.34.76-.37 1.14-.13 1.57.85 3.05 2.25 3.55.73.23 1.47.11 2.12-.11.54-.19 1.03-.46 1.49-.77.24.28.47.57.71.84.44.5.91.96 1.41 1.42.25.23.51.44.82.65.13.1.36.22.57.3.22.06.44.12.66.11.88 0 1.55-.38 2.14-.76.58-.41 1.1-.86 1.55-1.37.44-.48.84-.99 1.21-1.53.75.66 1.64 1.25 2.68 1.45.54.12 1.11.12 1.66 0 .55-.14 1.07-.41 1.49-.8.21-.19.39-.42.54-.65.17-.23.29-.54.32-.84.06-.55-.08-1.1-.29-1.6z" fill="#c27b55" stroke-width="none" opacity="1"></path></g></g><g id="svga-group-hair-front" transform="matrix(1,0,0,1,0,0)"><path id="SvgjsPath24363" d="M151.4 72.2c.5-1.9.6-4.1-.1-5.9-.4-.9-1.1-1.9-1.9-2.6.3-1.5.2-3-.4-4.4-.4-.8-.9-1.3-1.4-1.7-.3-.6-.7-1.1-1.2-1.5.1-.3.1-.6.2-.9 1.9-1.7 2.7-4.9 2.2-7.2-.4-1.6-1.5-3.3-3-4.3-.2-.8-.5-1.5-.8-2.1-1.3-2.3-3.5-3.7-5.8-4.6-.5-3.2-2.4-5.8-5.5-6.3-.1-.2-.1-.4-.2-.6-1.1-2.7-3.6-4-6.4-4.1-1.7-.1-3.4.5-5.2.5-1.8 0-3.3-.8-4.8-1.7-.8-1.9-2.3-3.4-4.1-4.5l-.4-.4c-.2-.2-.5-.2-.8-.2-.1 0-.1 0-.2-.1-.2-.3-.6-.6-1-.8-.4-.1-.8.2-.8.6 0 1 .1 1.9-.2 2.6-.2.2-.3.5-.5.8-.1.1-.3.3-.4.5-.3.2-.6.4-.8.6-1.4-.3-2.9 0-4.6 0-2.4-.1-4.1-1.3-5.4-2.9-.1-.7-.1-1.4-.1-2.1.1-.4.2-.7.3-1.1v-.2c.1-.1.3-.1.4-.2.1 0 .1-.1.2-.1.3 0 .7-.1 1-.2.5-.1.7-.7.3-1.1-1.4-1.4-3.8-.8-5.3.1-.1 0-.1.1-.2.1-1.4.5-2.6 1.7-3.1 3.6-.2.7-.3 1.3-.3 2-1.9-.3-4 1.2-5.4 2.7-1.1-1.1-3.2-1.8-4.8-1.9-.3-.1-.6-.2-.9-.2-1-.1-2 .1-2.8.6-.2.1-.4.1-.6.2-.2.1-.4.3-.4.6-1.6 1.1-2.4 3-2.4 4.9-.3.4-.6.7-1 1.1l-1 1c-.6.1-1.3.1-2.1 0-1.7-.3-3.2-1.2-4.9-1.4-2.6-.2-4.3 1.3-4.2 3.8 0 .1 0 .2.1.3-.4.1-.8.3-1.2.4-1.7.7-3.3 1.9-3.9 3.7-.6 1.8.3 2.6.7 4.2.7 2.4-2.1 3.2-3 5.3-.6 1.4-.5 2.8.1 4.2.1.2.3.5.4.8-.6 1-.7 2.6-.4 4.2-2.4-1.1-5-2-5.2-4.3 0-.5-.9-.8-1-.1-.4 2.2.3 3.7 2.2 4.9 1.3.9 3 1.3 4.3 2.4-.2.1-.3.3-.3.6 0 .6-.2 1.2-.5 1.8 0 .1-.1.1-.1.2v.1c-1 1.7-3 3.5-3.7 5.1-.2.6-.4 1.2-.6 1.9-1.6.7-2.9 3-3.4 4.3-1.2 3-.9 6.5 1.7 8.6.4.3 1 0 .9-.5-.7-2.5-.6-5.4.6-7.7-.3 2.1.6 3.8 2.7 4.6 1.3.5 2.6.4 3.9.6.8.1 1.6.2 2.3.8.3.2.5.6.7.9-.2.4-.4.8-.4 1.4-.4.7-.7 1.4-.9 2.1-.4 1.1-.5 2.3-.2 3.4.8 2.4 3.2 2.5 5.2 1.7.9-.4.5-1.9-.5-1.8-.5 0-1.4.1-1.8-.3-.5-.5-.2-1.4 0-2 .4-1.1 1-2.4.5-3.5.1-.1.2-.3.3-.4v-.2c.9-.7 1.9-1.4 2.5-2.3.6-1.2.5-2.5-.2-3.5 2.8-1 3.9-5.1 3-7.8-.2-.5-.5-1.1-.9-1.6-.7-2-1.7-3.3-1.2-5.6.2-1.2.7-2 1.4-2.8-.8 2.5-.3 5.7 2.6 6.4.3.1.6-.3.3-.6-5.1-4.3 4.8-9.5 7.3-12.9.2-.2.3-.5.5-.8.6 2.2 2 4.3 4.2 4.5.7.8 1.6 1.2 2.8 1.2.1 0 .2 0 .3-.1 1 .4 2.1.5 3.1-.2.4-.3.3-.8-.1-1-.7-.2-1.3-.3-1.9-.5-.4-1.1-.8-2.2-.9-3.2 2.4-6.2 10-5.6 14.4-9.7 1.3 1.2 2.8 1.7 4.7 1.9 1.3.1 2.6.2 3.7.9 1.1.8 1 1.9 1.2 3.1.1.8 1 1.1 1.7.9-.4 2-1.9 3.2-2.9 5-.2.4 0 1 .5.9.6-.1 1.1-.2 1.6-.5.5-.1.9-.3 1.4-.5 4.8 0 6.2-5.4 5.8-9.5.9 2.2 2.6 4 4.7 5 .9.5 2.4.8 3.9.9.1 0 .1 0 .1.1 1.1.4 2 1.1 2.8 2 .6.7 1 1.7 1.9 2 .5 2.1 2.1 4.4 4 4.9.2 0 .4.1.6.1.4.4.9.7 1.3 1 .6.4 1.3.6 2 .8.8 2.5-.3 4-1.6 6.1-1.5 2.5-1.3 4.8.5 7 .1.2.3.2.5.2-.9 2.7-1 5.7 1 7.8.5 1.8 2.1 4.2 4.3 3.6.3-.1.6-.5.3-.8-.6-.7-1.2-1.3-1.7-1.9 0-.1.1-.1.1-.2 1-3.6 6-3.4 8.1-6.3v.1c-.4 2.4-.4 5.2 1.6 6.8.4.3.9-.1.9-.5-.1-1.6-.7-2.9-.4-4.5.1-2 1-3.2 1.5-4.6zm-39.8-46.7c-.1 0-.1 0-.2.1-.2.1-.3.3-.4.4-.3-.3-.6-.6-.8-.9.1-.1.2-.2.3-.4.4-.5.8-1.2.9-1.9.1-.1.1-.3.2-.4.1 1.1.1 2.1 0 3.1z" fill="#1e1b1e" stroke-width="none" opacity="1"></path><path id="SvgjsPath24364" d="M95 39.5c-.7.8-1.6 1.5-2.6 1.9-2 .9-4.4 1.3-6.7 2.6-1.1.7-2.2 1.5-2.9 2.7-.7 1.2-1.1 2.7-.7 4.1.3 1.4 1.3 2.5 2.5 3.1 1.2.6 2.6.6 3.7 0-1.3.1-2.4-.2-3.3-.9-.8-.6-1.4-1.6-1.5-2.6-.3-2 1.2-3.7 3.1-4.7 1.8-1.1 4.3-1.6 6.5-3 1.1-.7 2.1-1.6 2.7-2.7.6-1.1.9-2.5.4-3.7 0 1.3-.5 2.4-1.2 3.2zM78.8 52.6c-.9-.6-1.7-1.4-2.3-2.3-.6-1-1.1-2-1.2-3.4-.7 1.2-.7 2.7-.2 4 .5 1.3 1.4 2.5 2.6 3.3 1.2.8 2.6 1.2 3.9 1.3 1.4.1 2.7-.1 3.9-.6-1.3-.3-2.5-.5-3.7-.9-1-.3-2.1-.8-3-1.4zM72.2 44c.9 1.8 1 3.7.4 5.4-.3.8-.7 1.5-1.4 2.1-.6.6-1.4 1.1-2.2 1.6-.8.5-1.7 1.1-2.5 1.8-.8.8-1.5 1.7-1.8 2.9-.5 2.4 1.1 4.7 3.1 5.1-1.6-1.2-2.1-3.2-1.6-4.7.6-1.5 2.2-2.4 3.8-3.5.8-.5 1.7-1.1 2.5-2 .8-.8 1.3-1.9 1.5-3 .5-2.1-.2-4.4-1.8-5.7zm-8.4-14c1.1.1 2.2.6 3.4 1 1.2.4 2.6.8 4.1.4.7-.2 1.5-.6 2.1-1.2.6-.6.9-1.4 1.1-2 .3-1.4.4-2.5.9-3.4.4-.9 1.3-1.5 2.3-2 2-.8 4.5-.2 6.7 1-.9-.9-1.9-1.7-3.2-2.2-1.2-.5-2.7-.6-4-.3-1.4.3-2.7 1.2-3.5 2.5-.8 1.4-.8 2.7-1.1 3.8-.3 1.1-.7 1.7-1.7 1.9-.4.1-1 .2-1.5.2s-1.1-.1-1.7-.2c-1.2-.2-2.5-.6-3.8-.5-.7.1-1.3.3-1.9.6-.6.3-1 .9-1.2 1.5.6-1 1.8-1.2 3-1.1zm-8.5 22.6c-1.8-1.3-2.6-3.5-2-5.2.3-.9.8-1.7 1.5-2.2.3-.2.8-.5 1.3-.9.3-.2.5-.4.8-.8.3-.3.5-.8.5-1.3s-.2-1-.3-1.3c-.2-.3-.4-.6-.6-.8-.3-.4-.4-.6-.5-1-.2-.7.1-1.6.6-2.3.5-.7 1.4-1.2 2.4-1.3 1-.2 2.1-.1 3.2.1-.9-.6-2-1-3.2-1.1-1.2 0-2.5.3-3.5 1.3-.9.9-1.5 2.2-1.3 3.7 0 .7.5 1.5.9 1.9.4.5.5.7.5.8 0 0 0 .1-.1.2l-.4.4c-.4.3-.8.5-1.4 1-1 .9-1.7 2-1.9 3.3-.2 1.2.1 2.6.7 3.6.7 1 1.7 1.7 2.8 1.9zm1.6 35.5c-1.1-1.2-1.2-3.2-.2-4.6.2-.4.6-.9.8-1.6.3-.7.3-1.6-.1-2.3-.8-1.3-2.2-1.8-3.4-1.8-1.2 0-2.2.2-3.1.2-.9-.1-1.9-.4-2.4-1.4 0 .5.3 1.1.7 1.5.4.4.9.7 1.5.9 1.1.3 2.2.3 3.1.4.5.1.8.2 1.2.4.3.2.6.5.7.7s.1.4 0 .7c-.1.3-.4.7-.7 1.2-1.4 2.1-1.2 5.2.9 6.8 2 1.7 5.2.8 6-1.3-1.5 1.6-3.9 1.4-5 .2zM64 63c-.8-.7-1.6-1.3-2.2-2.1-.6-.8-1-1.8-.8-2.8-.6.9-.5 2.3 0 3.3.5 1.1 1.3 2 2 2.7.7.8 1.5 1.5 1.9 2.3.4.8.6 1.7.6 2.6 0 .9-.3 1.8-.7 2.6-.4.8-1.1 1.3-1.9 2-.8.6-1.8 1.2-2.5 2.2-.3.5-.6 1-.7 1.6-.1.6 0 1.2.2 1.7-.1-1.1.5-2 1.2-2.6l.9-.6c.4 1 .4 2 .1 2.8-.2.5-.4.8-.8 1.2-.4.3-.9.7-1.5 1.2-.5.4-1.1 1.1-1.4 1.9-.2.8-.3 1.6 0 2.4.5 1.6 2 2.6 3.3 2.4-1.2-.7-1.8-1.7-1.8-2.7 0-.5.1-1 .3-1.4.2-.4.5-.7.9-1.1.4-.4 1-.8 1.5-1.3.5-.6 1-1.4 1-2.1.2-1.3-.3-2.6-1.2-3.3.5-.2.9-.5 1.4-.7 1-.5 2-1.2 2.7-2.3.7-1.1 1.1-2.3 1.1-3.5 0-1.2-.3-2.5-1-3.6-.9-1.4-1.8-2.1-2.6-2.8zM46 74.9c0-1.3.3-2.6.7-3.8.1-.4.3-.7.4-1.1.2 1.6 1 3.1 2.3 4-1.5-2.1-1.5-4.8-.5-6.7.5-1 1.3-1.7 2.3-2.5 1-.8 2.1-1.9 2.6-3.4.2-.8.2-1.7-.2-2.5-.3-.8-1-1.4-1.6-1.8-1.2-.8-2.4-1.2-3.1-1.9-1.5-1.4-1.8-4.3-.2-6.3-2.3 1.4-2.9 5-.9 7.3 1 1.2 2.3 1.7 3.2 2.3.9.7 1.2 1.3.9 2.2-.2.9-1 1.7-1.9 2.6-.5.4-.9.9-1.4 1.4-.5.5-.9 1.2-1.1 1.8-.2.5-.3 1.1-.4 1.6-.7.6-1.3 1.4-1.8 2.2-.8 1.3-1.2 2.9-1.3 4.4 0 1.6.3 3.1 1 4.5s1.7 2.6 3 3.3c-.7-1.3-1.2-2.6-1.6-3.9-.3-1.1-.5-2.4-.4-3.7zm61.6-56.1c.9.2 1.6.7 2 1.3.5.7.8 1.5.8 2.3.1.8-.1 1.6-.4 2.4-.7 1.6-1.9 3-3.4 4s-3.3 1.6-5.3 1.3c.8.6 1.9.8 3 .8s2.1-.3 3.1-.8c1.9-.9 3.6-2.5 4.5-4.6.9-2 .6-4.7-1-6.4.7.5 1.3 1 1.8 1.6.6.7 1.1 1.5 1.5 2.3.4.8.6 1.7.7 2.6.1 1 .1 1.9-.1 3 .9-.7 1.4-1.8 1.7-3s.1-2.4-.4-3.5-1.3-2-2.3-2.7c-1-.6-2.1-.9-3.2-.8-.3-.3-.7-.5-1.1-.7-.6-.2-1.1-.3-1.7-.3-1.1 0-2.2.6-2.8 1.5.8-.4 1.8-.5 2.6-.3zm-16.7 6.4c1-2.1.7-4.4 1-6.1.2-.9.5-1.6 1-2.1.5-.6 1.3-1 2.2-1.2 1.7-.5 3.7 0 5.5.9-1.3-1.5-3.4-2.6-5.8-2.4-1.1.1-2.3.6-3.2 1.4-.5.4-.8.9-1.1 1.5-.3.5-.4 1.1-.6 1.7-.4 2.2 0 4.2-.5 5.9-.5 1.6-2 3.1-3.9 3.6 2.1.1 4.4-1.1 5.4-3.2zM77 41.9c-.6-1-1-1.9-1.3-2.9-.3-.9-.4-1.9-.3-2.8.1-.9.3-1.8.7-2.7.2-.3.3-.7.5-1-.2.6-.3 1.2-.2 1.8.1.8.5 1.6 1 2.3.6.7 1.3 1.1 2 1.4 1.5.6 3.3.5 4.7-.3 1.4-.8 2.3-2 2.7-3.4-1.1.9-2.2 1.6-3.3 2s-2.3.3-3.3-.1-1.9-1.1-2.2-2.2c-.3-1-.3-2.4.5-3.5-.2.1-.5.2-.7.4-1.2.1-2.2.8-3 1.7-.8.9-1.3 2.1-1.4 3.4-.1 1.3.2 2.5.8 3.6.7 1.1 1.7 1.9 2.8 2.3zm23.3-25.1c-.4-.5-1.1-.6-1.7-.5-.6.1-1.2.4-1.6.9-.4.5-.7 1.1-.7 1.7 0 .6.2 1.2.7 1.6.3-.5.6-.9.8-1.2.2-.3.4-.5.7-.8.2-.2.4-.5.7-.7.3-.4.6-.7 1.1-1zm17.8 9c.8.7 1.9 1.1 2.9 1.3 2.1.4 4.1.1 5.9 0 .9 0 1.8 0 2.6.2s1.5.6 2.1 1.1c.6.5.9 1.2.9 2.1 0 .8-.3 1.7-1.1 2.3 1-.2 1.8-1.1 2.1-2.2v-.4c.3.4.6.6.8.9.3.4.6.7.9 1l1 1c.4.3.7.7 1.3 1.1.3-.6.3-1.3.1-1.9-.2-.6-.5-1.1-.9-1.6s-1-.8-1.6-1c-.5-.1-1-.2-1.6 0 0-.3 0-.6-.1-.9-.1-.6-.4-1.1-.8-1.5-.7-.9-1.7-1.5-2.7-1.9-1.1-.4-2.1-.5-3.2-.4-2.1 0-3.9.5-5.7.4-.9 0-1.7-.2-2.5-.6-.8-.4-1.5-.9-2.1-1.8.2 1.2.8 2.2 1.7 2.8zm4.5 21.4c-1-.1-1.9-.1-2.6-.3-1.4-.3-2.6-1.5-3.3-2.9-.7-1.5-.9-3.3-1-5.1-.5 1.2-.8 2.5-.8 3.8-.6-1.1-1.5-2-2.5-2.5 1.1 1.4 1.6 2.9 1.6 4.4 0 1.5-.5 2.9-1.3 4.1-.8 1.2-2 2.2-3.5 2.7-1.3.5-2.9.8-4.5.7.7 0 1.4-.3 2-.7.9-.6 1.5-1.6 1.7-2.7.2-1.1.1-2.2-.3-3.3-.4-1-1.2-1.9-2-2.6-.8-.7-1.9-1.2-2.9-1.4-1-.2-1.9-.4-2.8-.6-.9-.2-1.7-.4-2.4-1-.7-.5-1.3-1.2-1.5-2.2-.3 1 .1 2.1.8 2.9.7.8 1.7 1.4 2.6 1.7.9.4 1.9.6 2.7.9.8.3 1.6.7 2.2 1.2 1.3 1 2.1 2.5 2 4.1 0 1.5-1.2 3.2-3.1 3.6.2 0 .4.1.6.1 1.5.9 3.4 1.2 5.2.8 1.8-.4 3.6-1.5 4.6-3.1.9-1.2 1.4-2.7 1.3-4.2.3.6.7 1.1 1.1 1.6.7.8 1.7 1.4 2.8 1.6 1.1.2 2 .2 2.9.2.8 0 1.5.2 2.2.6 1.3.8 2.3 2.4 2.2 4.3 1-1.7.4-4.1-1.2-5.5-.6-.8-1.8-1.1-2.8-1.2zM136 77.6c-.2-1.5-.2-3.1.1-4.7.3-1.6.8-3.2 1.1-4.9-1 1.2-1.8 2.5-2.4 4-1-2-1.1-4.3-.3-6.2.4-1 1.3-1.9 1.9-3.3.3-.7.5-1.5.4-2.4-.1-.9-.7-1.7-1.3-2.2-1.2-1-2.5-1.4-3.4-2-.9-.5-1.7-1.4-2.3-2.4-1.1-2-1.1-4.6.1-6.9-1.9 1.7-2.7 4.9-1.6 7.6.5 1.3 1.5 2.5 2.7 3.3 1.2.8 2.4 1.2 3.1 1.9.7.6.9 1.3.5 2.3-.4 1-1.2 2.1-1.7 3.5-.8 2.5 0 5.3 1.6 7 0 .1-.1.2-.1.3-.6 1.7-.9 3.5-.6 5.4.3 1.8 1.2 3.7 2.7 4.9 1.5 1.2 3.6 1.7 5.2.9-1.7-.2-3.1-1-4.1-2.1-.8-1.1-1.4-2.5-1.6-4zm11.1-8.3c.8 1.5.8 3.2.2 4.5-.3.6-.7 1.2-1.3 1.6-.6.4-1.1.7-1.9.9-.7.2-1.6.3-2.6.8s-1.8 1.4-2 2.4c-.3 1-.1 2.2.5 2.9.6.8 1.5 1.3 2.4 1.3-.8-.4-1.3-1.1-1.5-1.7-.2-.7-.2-1.4.1-1.9.3-.6.7-1 1.3-1.2.6-.2 1.4-.3 2.3-.6.9-.2 1.9-.7 2.6-1.4.7-.7 1.3-1.6 1.5-2.5.6-2.1-.2-4.1-1.6-5.1zM142.6 55c2.1.4 3.8 1.5 4.9 3 1.1 1.5 1.4 3.3 1.1 5.1-.2.9-.5 1.7-1 2.4s-1.2 1.4-2 2c-1.5 1.2-3.5 2.5-4.4 4.4 1.6-1.4 3.5-2 5.3-3.1.9-.5 1.8-1.2 2.6-2.1.8-.9 1.2-2 1.5-3.2s.2-2.3-.1-3.5c-.3-1.1-.9-2.2-1.7-3-1.7-1.7-4.1-2.5-6.2-2zm7.6 25c-.1-1.5.3-3.1.9-4.7.6-1.6 1.2-3.4 1.3-5.3 0-1-.1-1.9-.5-2.8-.4-.9-1-1.7-1.9-2.1 1.1 1.5 1.1 3.2.8 4.7-.3 1.6-1.1 3.1-1.7 4.8-.6 1.7-1.1 3.7-.6 5.6.3 1 .8 1.9 1.6 2.5.7.6 1.7 1 2.6.9-1.5-.5-2.3-2.2-2.5-3.6zm-13.4-41.3c-.6.1-1.1.3-1.6.7 2.2-.5 4.3.4 5.7 1.8s2 3.3 1.9 5.3c0 1-.2 2-.6 2.9-.3 1-.9 1.8-1.4 2.8-.6 1-1.1 2.1-1.3 3.3-.1 1.2.2 2.5 1.1 3.2-.6-1-.5-2.1-.2-3 .3-1 .9-1.8 1.6-2.6.7-.8 1.4-1.8 1.9-3 .5-1.1.7-2.3.8-3.5 0-1.2-.2-2.3-.6-3.5 1 .4 1.7 1 2.2 1.8.6.8 1 1.6 1.2 2.5.2.9.2 1.9.2 3s-.2 2.1-.3 3.3c.8-.8 1.4-1.9 1.8-3 .4-1.1.5-2.4.2-3.7-.3-1.3-1-2.4-2-3.2-1-.8-2.3-1.1-3.4-.8-.5-1.1-1.3-2.2-2.3-2.9-1-.7-2.2-1.2-3.3-1.3-.4-.3-1-.3-1.6-.1zm-9.5-.2-.2-2.3c-.1-.8-.2-1.6-.3-2.5-.6.7-1 1.5-1.2 2.3-.2.8-.3 1.7-.2 2.6s.3 1.7.7 2.5c.4.8.9 1.5 1.6 2.1 0-.9 0-1.7-.1-2.5l-.3-2.2zm-28-18.1c-.7.8-.9 2.1-.6 3.2.3 1.1 1 2.2 2 2.9.5.3 1.1.6 1.7.7.6.1 1.1 0 1.6 0s.8 0 1.2.1c.4.1.8.4 1 .9.3-.5 0-1.2-.4-1.7s-1.1-.8-1.6-.9c-.5-.1-1-.2-1.4-.3-.4-.1-.7-.3-1-.5-.7-.4-1.2-1-1.7-1.8-.4-.7-.7-1.6-.8-2.6z" fill="#0f0c0f" stroke-width="none" opacity="1"></path></g><g id="svga-group-glasses-single-move" transform="matrix(1,0,0,1,0,0)"><g id="svga-group-glasses-single" transform="matrix(1,0,0,1,0,0)"><path id="SvgjsPath24269" d="M78.8 71.4c8.8 0 16 7.2 16 16s-7.2 16-16 16-16-7.2-16-16 7.1-16 16-16z" fill="url(#SvgjsLinearGradient24270)" opacity="1"></path><path id="SvgjsPath24278" d="M121 71.4c8.8 0 16 7.2 16 16s-7.2 16-16 16-16-7.2-16-16 7.2-16 16-16z" fill="url(#SvgjsLinearGradient24279)" opacity="1"></path><path id="SvgjsPath24287" d="M140.1 85.1h-2.8c-1.1-8-8-14.2-16.4-14.2-7.4 0-13.7 4.9-15.8 11.6-.1-.1-.1-.2-.2-.3-.5-.7-1.3-1-2.4-1.1H97.1c-1 .1-1.8.4-2.4 1.1-.1.1-.2.2-.2.3-2.1-6.7-8.4-11.6-15.8-11.6-8.3 0-15.2 6.2-16.4 14.2h-2.8v2.2h2.6v.2c0 9.1 7.4 16.5 16.5 16.5s16.6-7.4 16.6-16.5c0-.9-.1-1.9-.2-2.8 0 0-.1-1.1.5-1.8.3-.4.9-.7 1.6-.7H102.5c.7 0 1.3.3 1.6.7.6.7.5 1.8.5 1.8-.2.9-.2 1.8-.2 2.8 0 9.1 7.4 16.5 16.5 16.5s16.5-7.4 16.5-16.5v-.2h2.6l.1-2.2zm-61.3 17.8c-8.5 0-15.5-6.9-15.5-15.5S70.2 72 78.8 72s15.5 6.9 15.5 15.5-7 15.4-15.5 15.4zm42.2 0c-8.5 0-15.5-6.9-15.5-15.5S112.5 72 121 72s15.5 6.9 15.5 15.5-7 15.4-15.5 15.4z" fill="#170a06" stroke-width="none" opacity="1"></path></g></g></g></g></g><rect id="svga-credit-rect" width="200" height="15" x="0" y="185" fill="#ecf0f1" opacity="0.5" style="display: none;"></rect><text id="svga-credit-text" font-family="Avenir Next, Roboto, Helvetica, Arial, sans-serif" font-size="10px" text-anchor="start" font-weight="400" size="10px" anchor="start" weight="400" fill="#333333" x="32.734375" y="182.5859375" style="display: none;"><tspan id="SvgjsTspan23272" dy="13" x="32.734375">Created on AvatarMaker.com</tspan></text></g></svg>